# xmcd
#
# Track frame offsets:
#	150
#	12306
#	28185
#	46307
#	63753
#	73296
#	95920
#	109755
#	130455
#	147476
#
# Disc length: 2363 seconds
#
# Revision: 0
# Processed by: cddbd v1.5.1PL2 Copyright (c) Steve Scherf et al.
# Submitted via: EasyCDDAExtractor 8.2.3.1
#
DISCID=9809390a
DTITLE=Antony and the Johnsons - Live @ Monasterio de San Jeronimo1
DYEAR=1900
DGENRE=Antony
TTITLE0=Guitar Intro
TTITLE1=My Lady Story
TTITLE2=Cripple And The Starfish
TTITLE3=Everything Is New
TTITLE4=Crack Again
TTITLE5=The Lake
TTITLE6=For Today I'm A Bouy
TTITLE7=Man Is The Baby
TTITLE8=All Is Loneliness
TTITLE9=The Guests
EXTD=
EXTT0=
EXTT1=
EXTT2=
EXTT3=
EXTT4=
EXTT5=
EXTT6=
EXTT7=
EXTT8=
EXTT9=
PLAYORDER=
